:version 1.10
:name ASF
:units
  mass 1
  length 1
  angle deg
:documentation
  ASF file generated by Kaydara
:root
  axis xyz
  order  tx ty tz rx ry rz
  position 0 0 0
  orientation 0 0 0
:bonedata
  begin
    id 1
    name RightUpLegDummy
    direction -1 2.30186e-007 8.31532e-007
    length 4.46685
    axis 0 0 0 xyz
  end
  begin
    id 2
    name RightUpLeg
    direction -2.30187e-007 -1 1.24343e-010
    length 16.4045
    axis -3.49089 -0.000906625 0.000286804 xyz
    dof rx ry rz
  end
  begin
    id 3
    name RightLeg
    direction -2.30181e-007 -1 -4.17157e-009
    length 17.5097
    axis 3.68512 0.0193738 -0.131023 xyz
    dof rx ry rz
  end
  begin
    id 4
    name RightFoot
    direction 8.31421e-007 -4.51202e-011 1
    length 6.49508
    axis 4.81691e-005 -0.120479 -0.188788 xyz
    dof rx ry rz
  end
  begin
    id 5
    name RightToes
    direction 0.00124746 -0.014064 0.9999
    length 3.85082
    axis 0.000481921 0.542163 -0.142578 xyz
    dof rx ry rz
  end
  begin
    id 6
    name SpineDummy
    direction 0.0717043 0.9409 -0.331007
    length 10.0032
    axis 0 0 0 xyz
  end
  begin
    id 7
    name Spine
    direction 2.30186e-007 1 4.58806e-011
    length 9.84055
    axis -0.001389 0.000121418 2.40972e-006 xyz
    dof rx ry rz
  end
  begin
    id 8
    name Spine1
    direction 0 0 0
    length 0
    axis -0.001389 0.000121451 1.30017e-006 xyz
    dof rx ry rz
  end
  begin
    id 9
    name HEadDummy
    direction -0.00347485 0.950688 -0.310128
    length 8.00997
    axis -0.001389 0.000121451 1.30017e-006 xyz
  end
  begin
    id 10
    name HEad
    direction -0.0222688 0.980941 0.193023
    length 5.12695
    axis -0.001389 0.000121451 1.30017e-006 xyz
    dof rx ry rz
  end
  begin
    id 11
    name LeftShoulder1Dummy
    direction 0.988871 0.146793 -0.0242004
    length 3.5792
    axis -0.001389 0.000121451 1.30017e-006 xyz
  end
  begin
    id 12
    name LeftShoulder1
    direction 0.993832 0.108932 0.020779
    length 4.16823
    axis -0.001389 0.000121451 1.30017e-006 xyz
    dof rx ry rz
  end
  begin
    id 13
    name LeftArm
    direction 1 3.44807e-006 -8.31404e-007
    length 9.91437
    axis -23.1894 0.134784 0.967509 xyz
    dof rx ry rz
  end
  begin
    id 14
    name LeftForeArm
    direction 1 3.44842e-006 -8.31581e-007
    length 9.08575
    axis -9.91835 -0.06569 -0.177793 xyz
    dof rx ry rz
  end
  begin
    id 15
    name LeftHand
    direction 0.992938 -0.0411636 0.11126
    length 5.32135
    axis -0.00960232 -0.00340091 0.185173 xyz
    dof rx ry rz
  end
  begin
    id 16
    name RightShoulderDummy
    direction -0.988871 0.146793 -0.0241962
    length 3.5792
    axis -0.001389 0.000121451 1.30017e-006 xyz
  end
  begin
    id 17
    name RightShoulder
    direction -0.993832 0.108933 0.0207785
    length 4.16823
    axis 0.215806 0.000203643 -0.0068026 xyz
    dof rx ry rz
  end
  begin
    id 18
    name RightArm
    direction -1 3.90912e-006 8.31284e-007
    length 9.91437
    axis -23.2009 -0.134239 -0.964101 xyz
    dof rx ry rz
  end
  begin
    id 19
    name RightForeArm
    direction -1 3.90882e-006 8.31502e-007
    length 9.08575
    axis -9.92322 0.0658061 0.178867 xyz
    dof rx ry rz
  end
  begin
    id 20
    name RightHand
    direction -0.992843 -0.0414603 0.112003
    length 5.28593
    axis -0.00960638 0.00330671 -0.185228 xyz
    dof rx ry rz
  end
  begin
    id 21
    name LeftUpLegDummy
    direction 1 -2.30186e-007 -8.31532e-007
    length 4.46685
    axis 0 0 0 xyz
  end
  begin
    id 22
    name LeftUpLeg
    direction -2.30187e-007 -1 6.00931e-010
    length 16.4045
    axis -3.48766 0.00143442 -0.000524262 xyz
    dof rx ry rz
  end
  begin
    id 23
    name LeftLeg
    direction -2.30187e-007 -1 1.6669e-009
    length 17.5097
    axis 3.68178 -0.00654042 -0.000285133 xyz
    dof rx ry rz
  end
  begin
    id 24
    name LeftFoot
    direction 8.31532e-007 -4.54478e-011 1
    length 6.49508
    axis 1.87233e-006 4.66016e-005 -8.6538e-006 xyz
    dof rx ry rz
  end
  begin
    id 25
    name LeftToes
    direction 0.00818058 -0.00485161 0.999955
    length 3.85048
    axis 1.06247e-005 4.65869e-005 -8.65513e-006 xyz
    dof rx ry rz
  end
:hierarchy
  begin
    root RightUpLegDummy SpineDummy LeftUpLegDummy
    RightUpLegDummy RightUpLeg
    RightUpLeg RightLeg
    RightLeg RightFoot
    RightFoot RightToes
    SpineDummy Spine
    Spine Spine1
    Spine1 HEadDummy LeftShoulder1Dummy RightShoulderDummy
    HEadDummy HEad
    LeftShoulder1Dummy LeftShoulder1
    LeftShoulder1 LeftArm
    LeftArm LeftForeArm
    LeftForeArm LeftHand
    RightShoulderDummy RightShoulder
    RightShoulder RightArm
    RightArm RightForeArm
    RightForeArm RightHand
    LeftUpLegDummy LeftUpLeg
    LeftUpLeg LeftLeg
    LeftLeg LeftFoot
    LeftFoot LeftToes
  end

:SAMPLES-PER-SECOND 30
:FULLY-SPECIFIED
:DEGREES
61
root  -67.9111 33.8657 38.0562 21.996 83.3702 22.4876
RightUpLeg  7.9446 -21.9453 -11.3701
RightLeg  10.1274 2.71008 0.307406
RightFoot  -2.53357 -0.0142235 -0.0786912
RightToes  -36.5561 -0.186658 -0.284372
Spine  2.8757 -2.34645 0.832234
Spine1  5.52058 -4.58847 1.31711
HEad  19.1558 34.3132 -8.31823
LeftShoulder1  0 -2.42657e-020 -4.95415e-022
LeftArm  -46.9102 8.66535 -74.8411
LeftForeArm  33.9982 -36.7137 -7.55005
LeftHand  0.5113 -4.49436 -13.3646
RightShoulder  0 2.42657e-020 1.07489e-018
RightArm  -40.3627 -32.5403 88.1724
RightForeArm  25.65 77.0932 50.6839
RightHand  2.95728 2.55669 98.8299
LeftUpLeg  -3.92897 10.0799 3.35327
LeftLeg  2.95823 -8.31844 0.104346
LeftFoot  13.5901 0.242628 -1.97658
LeftToes  -20.4763 2.34596e-006 -6.06653e-008
62
root  -67.9654 33.8537 38.0732 21.259 83.4107 21.7215
RightUpLeg  7.71397 -22.0209 -11.2119
RightLeg  10.3764 2.72582 0.321163
RightFoot  -2.65547 -0.0145037 -0.0799296
RightToes  -36.3864 -0.187169 -0.285056
Spine  2.94791 -2.37505 0.89011
Spine1  5.6507 -4.66613 1.45404
HEad  19.9489 35.2079 -8.3849
LeftShoulder1  0 -2.42657e-020 -4.95415e-022
LeftArm  -45.8146 8.06475 -76.3637
LeftForeArm  38.7158 -32.7621 -6.50144
LeftHand  0.670947 -5.52902 -14.2152
RightShoulder  0 2.42657e-020 1.07489e-018
RightArm  -45.8007 -34.3312 89.2274
RightForeArm  -0.410612 77.2398 51.0398
RightHand  2.32184 13.0652 20.4508
LeftUpLeg  -4.2141 10.1509 3.46958
LeftLeg  3.28671 -8.39448 0.0573002
LeftFoot  13.5162 0.243383 -1.99163
LeftToes  -20.3763 2.34596e-006 -6.06653e-008
63
root  -68.0212 33.8514 38.0908 20.5767 83.4396 21.0074
RightUpLeg  7.59304 -22.1217 -11.0601
RightLeg  10.3822 2.81858 0.33233
RightFoot  -2.59394 -0.0147822 -0.0804482
RightToes  -36.5718 -0.187481 -0.285649
Spine  3.08675 -2.40009 0.959296
Spine1  5.92058 -4.72136 1.58625
HEad  20.1328 35.7556 -8.72382
LeftShoulder1  0 -2.42657e-020 -4.95415e-022
LeftArm  -44.4277 7.10228 -77.9282
LeftForeArm  42.4716 -28.0169 -5.36283
LeftHand  0.736424 -6.14137 -14.0485
RightShoulder  0 2.42657e-020 1.07489e-018
RightArm  -45.7863 -34.0171 89.1991
RightForeArm  -0.697074 77.2184 50.9132
RightHand  2.30822 13.3673 19.8888
LeftUpLeg  -4.3937 10.2466 3.57539
LeftLeg  3.38792 -8.51472 0.0431229
LeftFoot  13.569 0.244873 -2.0289
LeftToes  -20.382 2.34596e-006 -6.06653e-008
64
root  -68.0652 33.8497 38.1099 19.7603 83.4361 20.1494
RightUpLeg  7.47582 -21.9709 -10.8306
RightLeg  10.3548 2.62551 0.308394
RightFoot  -2.60094 -0.0150861 -0.079751
RightToes  -36.2622 -0.187577 -0.286139
Spine  3.2388 -2.40404 0.96048
Spine1  6.23244 -4.72063 1.55401
HEad  20.2396 36.3104 -8.84152
LeftShoulder1  0 -2.42657e-020 -4.95415e-022
LeftArm  -42.4754 6.25667 -79.4616
LeftForeArm  45.2228 -23.4344 -4.35854
LeftHand  0.706755 -6.17715 -13.4267
RightShoulder  0 2.42657e-020 1.07489e-018
RightArm  -45.8664 -33.9016 89.2554
RightForeArm  -1.00926 77.0373 49.9126
RightHand  2.55665 14.5331 20.2318
LeftUpLeg  -4.52149 10.3523 3.69313
LeftLeg  3.44745 -8.57441 0.0345431
LeftFoot  13.603 0.244516 -2.04991
LeftToes  -20.4963 2.34596e-006 -6.06653e-008
65
root  -68.1075 33.8306 38.1279 18.4857 83.3692 18.8288
RightUpLeg  7.14009 -21.9818 -10.6396
RightLeg  10.7255 2.7539 0.34144
RightFoot  -2.68794 -0.0154428 -0.0773419
RightToes  -36.4497 -0.187434 -0.286512
Spine  3.33844 -2.47105 1.07053
Spine1  6.37927 -4.89127 1.8379
HEad  20.2997 36.2213 -9.0254
LeftShoulder1  0 -2.42657e-020 -4.95415e-022
LeftArm  -42.2682 6.08626 -81.7915
LeftForeArm  49.5748 -18.7759 -3.4061
LeftHand  0.707496 -6.62275 -12.565
RightShoulder  0 2.42657e-020 1.07489e-018
RightArm  -44.993 -33.4952 88.3724
RightForeArm  -1.98924 77.0475 49.9474
RightHand  2.25294 11.9403 21.6788
LeftUpLeg  -4.89284 10.4994 3.84767
LeftLeg  4.00609 -8.61147 -0.0490184
LeftFoot  13.3848 0.238244 -2.03021
LeftToes  -20.5423 2.34596e-006 -6.06653e-008
66
root  -68.1487 33.7971 38.1637 16.9998 83.3023 17.2489
RightUpLeg  6.68732 -21.8597 -10.3274
RightLeg  11.2453 2.69586 0.359072
RightFoot  -2.84701 -0.016025 -0.0704655
RightToes  -36.4693 -0.187035 -0.286756
Spine  3.43063 -2.57926 1.08964
Spine1  6.49957 -5.12453 1.93011
HEad  20.4104 36.0149 -8.92018
LeftShoulder1  0 -2.42657e-020 -4.95415e-022
LeftArm  -44.7663 6.55379 -84.3762
LeftForeArm  54.4261 -16.793 -3.01195
LeftHand  0.702192 -7.09864 -11.6656
RightShoulder  0 2.42657e-020 1.07489e-018
RightArm  -44.8999 -33.439 88.1452
RightForeArm  -2.34746 76.8604 48.9591
RightHand  2.74712 14.6256 21.5459
LeftUpLeg  -5.44563 10.8152 4.06309
LeftLeg  4.83123 -8.81699 -0.176761
LeftFoot  13.0565 0.232832 -2.03442
LeftToes  -20.8242 2.34596e-006 -6.06653e-008
67
root  -68.1863 33.7618 38.2109 15.365 83.1015 15.4935
RightUpLeg  6.13026 -21.4342 -9.91816
RightLeg  11.8728 2.31233 0.333904
RightFoot  -3.19147 -0.0171702 -0.0538114
RightToes  -35.8115 -0.186358 -0.286858
Spine  3.5621 -2.71291 1.13476
Spine1  6.70915 -5.39015 2.03138
HEad  20.5884 35.421 -8.74086
LeftShoulder1  0 -2.42657e-020 -4.95415e-022
LeftArm  -47.5077 7.16822 -86.811
LeftForeArm  58.029 -15.0814 -2.67884
LeftHand  0.655281 -7.22645 -10.7292
RightShoulder  0 2.42657e-020 1.07489e-018
RightArm  -44.9881 -32.8906 88.1858
RightForeArm  -2.08258 76.9587 49.4743
RightHand  2.75818 14.359 22.0192
LeftUpLeg  -6.0182 11.2455 4.29706
LeftLeg  5.71791 -9.02336 -0.320124
LeftFoot  12.7048 0.226243 -2.03205
LeftToes  -21.0482 2.34596e-006 -6.06653e-008
68
root  -68.2252 33.7209 38.2681 13.8933 82.7785 13.9713
RightUpLeg  5.51408 -21.0872 -9.61687
RightLeg  12.6427 2.31254 0.365589
RightFoot  -3.55538 -0.0171571 -0.0540303
RightToes  -35.7407 -0.185383 -0.286806
Spine  3.65099 -2.75883 1.17545
Spine1  6.83145 -5.4715 2.12382
HEad  21.147 34.5555 -8.19347
LeftShoulder1  0 -2.42657e-020 -4.95415e-022
LeftArm  -50.8536 7.86088 -89.0153
LeftForeArm  61.1104 -13.4576 -2.36816
LeftHand  0.62357 -7.44921 -9.9359
RightShoulder  0 2.42657e-020 1.07489e-018
RightArm  -45.7406 -32.6699 88.759
RightForeArm  -0.568668 77.0995 50.258
RightHand  2.94842 14.9644 22.5529
LeftUpLeg  -6.62371 11.6889 4.52873
LeftLeg  6.85774 -9.12168 -0.504776
LeftFoot  12.2585 0.213733 -1.99014
LeftToes  -21.0464 2.34596e-006 -6.06653e-008
69
root  -68.2822 33.6901 38.3638 11.9089 82.6078 11.8563
RightUpLeg  5.03321 -20.8208 -9.04142
RightLeg  13.0452 2.62657 0.433921
RightFoot  -3.82984 -0.0153308 -0.0812222
RightToes  -35.2243 -0.183356 -0.286587
Spine  3.62746 -2.78408 1.1975
Spine1  6.77956 -5.48531 2.11677
HEad  22.1166 33.3378 -6.95544
LeftShoulder1  0 -2.42657e-020 -4.95415e-022
LeftArm  -54.4892 8.65242 -90.6311
LeftForeArm  64.0316 -11.9031 -2.07451
LeftHand  0.569017 -7.21749 -9.38269
RightShoulder  0 2.42657e-020 1.07489e-018
RightArm  -45.8334 -32.5313 88.8741
RightForeArm  -1.5013 77.0107 49.7604
RightHand  3.10024 15.0977 23.4626
LeftUpLeg  -7.12617 12.1243 4.92166
LeftLeg  7.5582 -9.37834 -0.633477
LeftFoot  11.9937 0.210838 -2.00687
LeftToes  -21.1309 2.34596e-006 -6.06653e-008
70
root  -68.3067 33.6721 38.4272 9.55289 81.9642 9.31538
RightUpLeg  4.45254 -20.1632 -8.51965
RightLeg  13.3741 2.57413 0.440407
RightFoot  -3.91434 -0.0152607 -0.0798886
RightToes  -35.1402 -0.180871 -0.286057
Spine  3.65252 -2.71624 1.26288
Spine1  6.85574 -5.30132 2.15681
HEad  22.6981 32.3531 -6.19417
LeftShoulder1  0 -2.42657e-020 -4.95415e-022
LeftArm  -58.2383 9.36168 -91.9477
LeftForeArm  66.5732 -10.6286 -1.83575
LeftHand  0.526631 -6.92918 -9.06094
RightShoulder  0 2.42657e-020 1.07489e-018
RightArm  -43.9995 -31.9641 88.6351
RightForeArm  1.31651 76.7615 48.529
RightHand  0.179916 0.441744 45.2995
LeftUpLeg  -7.37125 12.4462 5.28901
LeftLeg  7.96449 -9.03892 -0.674971
LeftFoot  11.7862 0.196155 -1.90023
LeftToes  -21.7256 2.34596e-006 -6.06653e-008
71
root  -68.3569 33.6637 38.5091 7.9769 81.4403 7.6411
RightUpLeg  4.02213 -19.3296 -8.0072
RightLeg  13.6025 1.69295 0.296891
RightFoot  -3.98365 -0.0186063 -0.0241912
RightToes  -34.8944 -0.179036 -0.284524
Spine  3.66087 -2.65762 1.27993
Spine1  6.90761 -5.14216 2.10801
HEad  23.4093 31.0024 -5.14657
LeftShoulder1  0 -2.42657e-020 -4.95415e-022
LeftArm  -61.9449 10.0975 -92.7484
LeftForeArm  68.4276 -9.80444 -1.68182
LeftHand  0.503554 -6.60214 -9.09305
RightShoulder  0 2.42657e-020 1.07489e-018
RightArm  -44.7441 -32.3752 88.6494
RightForeArm  3.13746 77.0875 50.2672
RightHand  -0.839456 -2.28445 40.6116
LeftUpLeg  -7.50847 12.7585 5.62206
LeftLeg  8.19037 -8.80718 -0.692639
LeftFoot  11.7413 0.190719 -1.84437
LeftToes  -21.9653 2.34596e-006 -6.06653e-008
